<?xml version="1.0" encoding="UTF-8"?>
<svg id="Layer_1" xmlns="http://www.w3.org/2000/svg" version="1.1" viewBox="0 0 2259.34 371.28">
  <!-- Generator: Adobe Illustrator 29.8.6, SVG Export Plug-In . SVG Version: 2.1.1 Build 1)  -->
  <defs>
    <style>
      .st0 {
        fill: #fdfeff;
      }
    </style>
  </defs>
  <path class="st0" d="M255.32,269.09v39.86c0,2.77-2.29,5-5.11,5H51.06v-49.85h199.15c2.82,0,5.11,2.24,5.11,4.99M293.62,164.4l12.77-49.84H0v249.24h255.32c28.2,0,51.06-22.32,51.06-49.84v-49.85c0-27.52-22.87-49.85-51.06-49.85H51.06v-49.85h242.56Z"/>
  <path class="st0" d="M2075.79,214.25h-199.15v-49.84h199.15c2.82,0,5.11,2.22,5.11,4.97v39.89c0,2.74-2.29,4.97-5.11,4.97M2080.9,114.56h-255.32v249.24h51.06v-99.7h204.26c28.19,0,51.06-22.32,51.06-49.85v-49.84c0-27.53-22.88-49.85-51.06-49.85"/>
  <path class="st0" d="M1718.33,313.96h-194.04c-2.82,0-5.11-2.24-5.11-5v-139.57c0-2.75,2.29-4.97,5.11-4.97h194.04c2.83,0,5.12,2.22,5.12,4.97v139.57c0,2.77-2.29,5-5.12,5M1723.45,114.56h-204.27c-28.19,0-51.06,22.32-51.06,49.85v149.54c0,27.52,22.87,49.84,51.06,49.84h204.27c28.19,0,51.05-22.32,51.05-49.84v-149.54c0-27.53-22.86-49.85-51.05-49.85"/>
  <path class="st0" d="M607.67,313.96h-194.05c-2.81,0-5.1-2.24-5.1-5v-139.57c0-2.75,2.29-4.97,5.1-4.97h194.05c2.82,0,5.1,2.22,5.1,4.97v139.57c0,2.77-2.28,5-5.1,5M612.77,114.56h-204.26c-28.2,0-51.06,22.32-51.06,49.85v149.54c0,27.52,22.87,49.84,51.06,49.84h204.26c28.22,0,51.06-22.32,51.06-49.84v-149.54c0-27.53-22.85-49.85-51.06-49.85"/>
  <path class="st0" d="M1360.88,313.96h-97.02v-62.9h-12.78v-24.92h12.78v-61.72h97.02c2.82,0,5.11,2.22,5.11,4.97v139.57c0,2.77-2.29,5-5.11,5M1110.65,308.96v-139.57c0-2.75,2.29-4.97,5.12-4.97h97.01v61.72h12.77v24.92h-12.77v62.9h-97.01c-2.83,0-5.12-2.24-5.12-5M1365.99,114.56h-255.34c-28.2,0-51.06,22.32-51.06,49.85v149.54c0,27.52,22.86,49.84,51.06,49.84h255.34c28.19,0,51.05-22.32,51.05-49.84v-149.54c0-27.53-22.86-49.85-51.05-49.85"/>
  <path class="st0" d="M1008.53,164.4l12.77-49.84h-255.33c-28.21,0-51.06,22.32-51.06,49.84v149.55c0,27.52,22.86,49.84,51.06,49.84h255.33l-12.77-49.84h-237.45c-2.82,0-5.11-2.24-5.11-5v-139.57c0-2.75,2.29-4.99,5.11-4.99h237.45Z"/>
  <path class="st0" d="M1174.5,231.11v14.96c0,2.75,2.29,4.97,5.1,4.97h33.19v-24.9h-33.19c-2.81,0-5.1,2.22-5.1,4.97"/>
  <path class="st0" d="M1302.16,246.07v-14.96c0-2.75-2.29-4.97-5.11-4.97h-33.19v24.9h33.19c2.82,0,5.11-2.22,5.11-4.97"/>
  <g>
    <path class="st0" d="M2200.95,64.51h-11.61v30.15h-8.76V24.59h18.02c17.32,0,26.28,6.72,26.28,19.66,0,9.98-5.3,15.79-15.28,18.74l18.95,31.67h-10.49l-17.11-30.15ZM2199.63,57.69c10.08,0,15.89-3.77,15.89-13.44,0-8.86-5.09-12.73-17.01-12.73h-9.17v26.18h10.29Z"/>
    <path class="st0" d="M2204.57,114.39c-30.19,0-54.76-24.57-54.76-54.76s24.57-54.77,54.76-54.77,54.77,24.57,54.77,54.77-24.57,54.76-54.77,54.76ZM2204.57,11.23c-26.68,0-48.39,21.71-48.39,48.4s21.71,48.39,48.39,48.39,48.4-21.71,48.4-48.39-21.71-48.4-48.4-48.4Z"/>
  </g>
</svg>